<svg viewBox="0 0 24 24" xmlns="http://www.w3.org/2000/svg" fill-rule="evenodd" clip-rule="evenodd" stroke-linejoin="round" stroke-miterlimit="2"><circle cx="10.2" cy="12" r="7.5" fill="#131315" transform="matrix(1.6 0 0 1.6 -4.347 -7.2)"/><circle cx="10.217" cy="12" r="7.5" fill="url(#prefix___Radial1)" transform="matrix(1.6 0 0 1.6 -4.347 -7.2)"/><circle cx="10.217" cy="12" r="7.5" fill="#fffecd" transform="matrix(1.11626 0 0 1.11626 .595 -1.395)"/><path d="M19.136 7.534c2.465 3.938 1.268 9.137-2.67 11.602-3.938 2.465-9.137 1.268-11.602-2.67-2.465-3.938-1.269-9.137 2.67-11.602a8.423 8.423 0 0111.583 2.639l.02.03zm-7.955-3.49c-2.879 2.595-3.737 6.626-1.857 9.63 1.88 3.005 5.882 3.995 9.474 2.54a8 8 0 01-13.577.028 8 8 0 015.96-12.198zm8.24 10.863a7.408 7.408 0 01-.155.362l-1.248.78a8.592 8.592 0 01-.746.203l2.15-1.345zm.233-.657c-.034.11-.07.221-.11.331l-2.84 1.778c-.174.027-.35.049-.523.064l3.473-2.173zm.158-.612a7.627 7.627 0 01-.074.31l-3.998 2.503a9.114 9.114 0 01-.427.003l4.499-2.816zm.103-.577a7.807 7.807 0 01-.046.293l-4.928 3.085a8.723 8.723 0 01-.37-.033l5.344-3.345zm.058-.548a7.27 7.27 0 01-.024.279l-5.704 3.57a7.125 7.125 0 01-.327-.06l6.055-3.789zm.02-.525c0 .09-.003.18-.006.268l-6.36 3.981a8.294 8.294 0 01-.295-.08l6.66-4.169zm-.015-.503c.005.086.01.172.012.257l-6.923 4.333a9.19 9.19 0 01-.27-.097l7.18-4.493zM19.934 11c.01.082.019.164.026.247l-7.403 4.633a6.335 6.335 0 01-.245-.11l7.622-4.77zm-.073-.468c.016.08.029.159.042.24L12.09 15.66a7.697 7.697 0 01-.226-.123l7.997-5.005zm-.096-.45c.018.076.037.153.053.23l-8.157 5.104a8.591 8.591 0 01-.207-.133l8.311-5.202zm-.12-.438l.065.224-8.442 5.283a4.873 4.873 0 01-.191-.145l8.567-5.362zm-.145-.422c.028.07.053.143.077.216l-8.673 5.428a6.964 6.964 0 01-.175-.155l8.771-5.49zm-.164-.41c.03.07.06.14.088.21l-8.852 5.54a5.26 5.26 0 01-.16-.164l8.924-5.585zm-.186-.396c.035.067.067.135.099.203l-8.981 5.621c-.05-.057-.099-.114-.146-.173l9.028-5.65zm-.178-.336l.025.045.026.048.007.012.023.044-9.062 5.672a7.49 7.49 0 01-.132-.182l9.086-5.687.027.048zm-.253-.418l.119.19-9.097 5.692-.119-.189 9.097-5.693zm-.245-.359l.003.003.126.18-9.086 5.687a7.744 7.744 0 01-.106-.198l9.063-5.672zm-.266-.346c.048.058.095.117.14.177l-9.029 5.65c-.032-.068-.062-.137-.092-.207l8.981-5.62zm-.285-.333c.05.055.1.112.15.17L9.147 12.38a5.26 5.26 0 01-.077-.216l8.852-5.54zm-.307-.32c.054.053.108.108.16.163l-8.77 5.49a7.862 7.862 0 01-.064-.226l8.674-5.428zm-.33-.308c.06.052.117.104.173.157l-8.568 5.362a6.466 6.466 0 01-.047-.235l8.443-5.284zm-.351-.29c.062.047.123.097.184.147l-8.31 5.201a8.591 8.591 0 01-.031-.244l8.157-5.105zm-.376-.278c.066.046.131.093.196.141l-7.997 5.005a7.697 7.697 0 01-.012-.257l7.813-4.89zm-.403-.26l.21.132-7.622 4.77a7.49 7.49 0 01.009-.268l7.403-4.633zm-.432-.242c.076.04.151.08.226.123L8.77 9.543l.031-.283 6.923-4.333zm-.463-.223c.081.036.163.073.243.113L8.842 8.986c.018-.1.036-.2.058-.3l6.361-3.982zm-.498-.2c.087.033.174.065.26.1L8.97 8.394c.027-.107.057-.214.09-.32l5.704-3.57zm-.541-.173c.095.027.19.056.283.086L9.161 7.762c.042-.117.085-.232.132-.347l4.929-3.084zm-.592-.143c.105.021.209.044.311.07l-4.5 2.816c.06-.129.124-.256.19-.384l3.999-2.502zm-.654-.102c.116.013.232.029.346.047L9.848 6.307c.09-.15.186-.298.287-.443l2.841-1.778zm-.74-.05c.13.003.262.009.394.018L10.479 5.4c.16-.2.328-.394.507-.582l1.25-.782z" fill="#262627"/><defs><radialGradient id="prefix___Radial1" cx="0" cy="0" r="1" gradientUnits="userSpaceOnUse" gradientTransform="translate(10.217 12) scale(6.875)"><stop offset="0" stop-color="#ed9961"/><stop offset=".52" stop-color="#ed9263"/><stop offset=".8" stop-color="#ed6b6d"/><stop offset=".89" stop-color="#4c2e30" stop-opacity=".24"/><stop offset="1" stop-color="#1b1b1d" stop-opacity="0"/></radialGradient></defs></svg>